<svg width="24" height="26" viewBox="0 0 24 26" fill="none" xmlns="http://www.w3.org/2000/svg">
<path d="M11.9411 0.866699L12.3191 0.867912L12.69 0.872766L13.4086 0.893393L13.7574 0.909166L14.4328 0.950419L15.0779 1.00623C20.6596 1.56922 22.9308 3.93158 23.472 9.73738L23.5257 10.4084L23.5653 11.1109C23.5712 11.2298 23.577 11.3511 23.5805 11.4737L23.6003 12.2211L23.6062 13L23.6003 13.779L23.5805 14.5264L23.5653 14.8892L23.5257 15.5917L23.472 16.2627C22.9308 22.0685 20.6596 24.4308 15.0779 24.9938L14.4328 25.0496L13.7574 25.0909C13.6431 25.097 13.5264 25.103 13.4086 25.1067L12.69 25.1273L11.9411 25.1334L11.1922 25.1273L10.4737 25.1067L10.1249 25.0909L9.4495 25.0496L8.80442 24.9938C3.22271 24.4308 0.951528 22.0685 0.410271 16.2627L0.356612 15.5917L0.316951 14.8892C0.311276 14.7683 0.306221 14.6474 0.301786 14.5264L0.281956 13.779C0.278456 13.5242 0.276123 13.2645 0.276123 13L0.277289 12.6069L0.281956 12.2211L0.301786 11.4737L0.316951 11.1109L0.356612 10.4084L0.410271 9.73738C0.951528 3.93158 3.22271 1.56922 8.80442 1.00623L9.4495 0.950419L10.1249 0.909166C10.2392 0.903099 10.3559 0.897033 10.4737 0.893393L11.1922 0.872766C11.4372 0.869126 11.6868 0.866699 11.9411 0.866699ZM11.9411 8.1467C11.6318 8.1467 11.3351 8.27453 11.1163 8.50208C10.8975 8.72962 10.7746 9.03824 10.7746 9.36003V11.7867H8.44164L8.30516 11.7952C8.00992 11.8317 7.73923 11.9841 7.54841 12.2213C7.35758 12.4584 7.26101 12.7624 7.27843 13.0711C7.29586 13.3799 7.42596 13.67 7.64215 13.8823C7.85835 14.0946 8.14432 14.213 8.44164 14.2134H10.7746V16.64L10.7828 16.782C10.8179 17.0891 10.9644 17.3706 11.1924 17.5691C11.4204 17.7676 11.7127 17.8681 12.0095 17.8499C12.3063 17.8318 12.5853 17.6965 12.7894 17.4716C12.9935 17.2467 13.1073 16.9493 13.1076 16.64V14.2134H15.4407L15.5771 14.2049C15.8724 14.1683 16.1431 14.0159 16.3339 13.7788C16.5247 13.5416 16.6213 13.2376 16.6039 12.9289C16.5864 12.6202 16.4563 12.3301 16.2401 12.1178C16.0239 11.9055 15.738 11.787 15.4407 11.7867H13.1076V9.36003L13.0995 9.21807C13.0661 8.92293 12.9296 8.65081 12.7161 8.45333C12.5026 8.25585 12.2269 8.14674 11.9411 8.1467Z" fill="#005EA3"/>
</svg>
