<svg width="70" height="70" viewBox="0 0 70 70" fill="none" xmlns="http://www.w3.org/2000/svg">
<path d="M38.4166 38.4167H31.5833V17.9167H38.4166M38.4166 52.0833H31.5833V45.25H38.4166M34.9999 0.833344C30.5131 0.833344 26.0702 1.71709 21.9249 3.43413C17.7796 5.15116 14.0131 7.66786 10.8404 10.8405C4.43294 17.248 0.833252 25.9384 0.833252 35C0.833252 44.0616 4.43294 52.752 10.8404 59.1595C14.0131 62.3322 17.7796 64.8489 21.9249 66.5659C26.0702 68.2829 30.5131 69.1667 34.9999 69.1667C44.0615 69.1667 52.7519 65.567 59.1594 59.1595C65.5669 52.752 69.1666 44.0616 69.1666 35C69.1666 30.5132 68.2828 26.0703 66.5658 21.925C64.8488 17.7797 62.3321 14.0132 59.1594 10.8405C55.9867 7.66786 52.2202 5.15116 48.0749 3.43413C43.9296 1.71709 39.4868 0.833344 34.9999 0.833344Z" fill="#D30E0E"/>
</svg>
