<svg width="64" height="64" viewBox="0 0 42 42" fill="none" xmlns="http://www.w3.org/2000/svg">
<path d="M36.4775 28.8229C36.4775 29.48 36.1144 30.0506 35.5611 30.3446L21.9007 38.0221C21.624 38.2296 21.2782 38.3333 20.915 38.3333C20.5519 38.3333 20.2061 38.2296 19.9294 38.0221L6.269 30.3446C5.99178 30.1989 5.75979 29.98 5.59821 29.7118C5.43664 29.4435 5.35168 29.1361 5.35255 28.8229V13.2604C5.35255 12.6033 5.71567 12.0327 6.269 11.7387L19.9294 4.06125C20.2061 3.85375 20.5519 3.75 20.915 3.75C21.2782 3.75 21.624 3.85375 21.9007 4.06125L35.5611 11.7387C36.1144 12.0327 36.4775 12.6033 36.4775 13.2604V28.8229ZM20.915 7.46771L10.6092 13.2604L20.915 19.0531L31.2209 13.2604L20.915 7.46771ZM8.81088 27.8027L19.1859 33.6473V22.0446L8.81088 16.2173V27.8027ZM33.0192 27.8027V16.2173L22.6442 22.0446V33.6473L33.0192 27.8027Z" fill="black"/>
</svg>
