<svg width="20" height="20" viewBox="0 0 20 20" fill="none" xmlns="http://www.w3.org/2000/svg">
<path d="M4.98465 5.97504H3.98683C3.45756 5.97504 2.94997 6.185 2.57572 6.55873C2.20146 6.93246 1.99121 7.43936 1.99121 7.96789V16.9358C1.99121 17.4643 2.20146 17.9712 2.57572 18.3449C2.94997 18.7186 3.45756 18.9286 3.98683 18.9286H12.9671C13.4964 18.9286 14.004 18.7186 14.3783 18.3449C14.7525 17.9712 14.9628 17.4643 14.9628 16.9358V15.9393" stroke="#464646" stroke-width="2" stroke-linecap="round" stroke-linejoin="round"/>
<path d="M13.9652 3.98216L16.9586 6.97145M18.3406 5.5615C18.7335 5.16906 18.9543 4.6368 18.9543 4.0818C18.9543 3.52681 18.7335 2.99455 18.3406 2.60211C17.9476 2.20967 17.4146 1.9892 16.8588 1.9892C16.303 1.9892 15.77 2.20967 15.3771 2.60211L6.98047 10.9572V13.9464H9.9739L18.3406 5.5615Z" stroke="#464646" stroke-width="2" stroke-linecap="round" stroke-linejoin="round"/>
</svg>
