<svg width="25" height="24" viewBox="0 0 25 24" fill="none" xmlns="http://www.w3.org/2000/svg">
<path d="M9 6.66668V4.00001C9 3.29277 9.28095 2.61449 9.78105 2.11439C10.2811 1.61429 10.9594 1.33334 11.6667 1.33334H21C21.7072 1.33334 22.3855 1.61429 22.8856 2.11439C23.3857 2.61449 23.6667 3.29277 23.6667 4.00001V20C23.6667 20.7073 23.3857 21.3855 22.8856 21.8856C22.3855 22.3857 21.7072 22.6667 21 22.6667H11.6667C10.9594 22.6667 10.2811 22.3857 9.78105 21.8856C9.28095 21.3855 9 20.7073 9 20V17.3333" stroke="#fff" stroke-width="2" stroke-linecap="round" stroke-linejoin="round"/>
<path d="M1 12H18.3333M18.3333 12L14.3333 8M18.3333 12L14.3333 16" stroke="#fff" stroke-width="2" stroke-linecap="round" stroke-linejoin="round"/>
</svg>
