<?xml version="1.0" standalone="no"?>
<!DOCTYPE svg PUBLIC "-//W3C//DTD SVG 20010904//EN"
 "http://www.w3.org/TR/2001/REC-SVG-20010904/DTD/svg10.dtd">
<svg version="1.0" xmlns="http://www.w3.org/2000/svg"
 width="512.000000pt" height="512.000000pt" viewBox="0 0 512.000000 512.000000"
 preserveAspectRatio="xMidYMid meet">

<g transform="translate(0.000000,512.000000) scale(0.100000,-0.100000)"
fill="#ffffff" stroke="none">
<path d="M2430 5114 c-288 -32 -462 -82 -680 -195 -165 -86 -287 -176 -430
-319 -143 -143 -233 -265 -319 -430 -140 -270 -196 -507 -195 -825 0 -292 51
-503 184 -770 94 -189 178 -303 340 -466 l136 -135 -60 -33 c-287 -156 -565
-398 -765 -665 -262 -350 -431 -783 -467 -1198 l-7 -78 160 0 160 0 7 71 c59
595 406 1159 925 1504 89 59 307 174 359 190 16 4 52 -5 115 -31 231 -93 412
-128 667 -128 255 0 436 35 667 128 63 26 99 35 115 31 52 -16 270 -131 359
-190 519 -345 866 -909 925 -1504 l7 -71 160 0 160 0 -7 78 c-36 415 -205 848
-467 1198 -200 267 -478 509 -765 665 l-60 33 136 135 c162 163 246 277 340
466 142 285 201 554 186 850 -18 360 -124 672 -324 955 -86 122 -290 326 -412
412 -220 155 -475 260 -740 304 -85 14 -345 26 -410 18z m410 -344 c508 -103
918 -463 1083 -950 53 -155 70 -270 70 -460 0 -190 -17 -305 -70 -460 -143
-422 -481 -760 -903 -903 -155 -53 -270 -70 -460 -70 -190 0 -305 17 -460 70
-422 143 -760 481 -903 903 -53 155 -70 270 -70 460 0 190 17 305 70 460 103
303 307 566 578 745 182 120 393 196 617 225 113 14 328 4 448 -20z"/>
</g>
</svg>
